<svg width="410" height="475" viewBox="0 0 410 475" fill="none" xmlns="http://www.w3.org/2000/svg">
<path d="M4.5 450.5L1 444.5V422.5V397L6.5 378V361V346.5V335L11.5 318.5L17 310H26.5L36.5 315L45.5 325L51.5 338L59 346.5L44 318.5L30 307.5H21.5V303L30 297L44 295.5L67.5 285L71 281L77.5 285L86 287L96 290.5L118 295.5H139L98 287L81.5 283L75 279L81.5 272L86 261L94 247L103 243.5H109L103 253V254.5L114 261L139 272L148 275.5L139 265L134 254.5L131 243.5V239.5L122 235.5L109 241L113 236.5L125 228.5L131 224L114 208.5L96 196L81.5 184.5L75 170.5L69.5 162L77.5 166.5L81.5 174L86 178.5L98 184.5L109 182.5L106.5 174L100.5 162L87.5 155.5H79L77.5 158.5H64.5L54.5 143.5V130V115.5V100L58.5 93L56.5 81L58.5 68L64.5 50L81.5 35L103 27L114 24.5L120 29L125 37L131 40L138 47.5L135.5 58L131 60L125 65L127.5 72.5V81L120 98.5L111 105.5L106.5 121.5L104.5 132.5L111 139.5H118L125 141.5L127.5 149L139 152.5H153L158 149L163 145L167.5 139.5L172 130L169.5 126H151.5L135.5 128.5L118 132.5L151.5 124H169.5H182.5L198.5 118H213.5L233 115.5L230 124V132.5L216.5 135.5L196.5 141.5L188 139.5L182.5 130L144 50L127.5 33.5L122 24.5L135.5 9.5L178 1H198.5L213.5 24.5L230 42.5L248.5 65V82.5V100L252 121.5L248.5 141.5L242 162L233 170.5L228 190L230 204.5V218.5H239.5H260L269 228.5L276.5 235.5L273 243.5L256 253V239.5V228.5L248.5 227L252 230V236.5V249L245.5 261L239.5 263.5L245.5 279L260 272L276.5 267.5L298.5 261H306L298.5 247L292 236.5H278L311 261L349.5 267.5L364 279L369 289L382 319.5V329V339L388.5 357.5L394.5 385L391.5 388V394.5L403 403.5L401 411.5L407 425L409 442.5L407 448L401 458L399 472L391.5 474H382L377.5 458L361.5 440L338 425L326 408L323.5 400L326 372M326 372L334 343L338 319.5L326 357.5V372ZM321 391L317.5 397L282 346.5L269 329L256 303L235 254.5L212.5 228.5L202.5 227L197 233L204 236.5V249L205.5 253L214.5 254.5H204L202.5 236.5L194.5 233L198.5 225.5L192.5 224L182 225.5L173.5 227H158.5L154.5 236.5V249L152 263.5V275.5L161.5 253L167 233L184 232H192.5L185.5 241L177 261L188.5 241L201 249L192.5 269.5L201 254.5L214.5 258.5L212.5 272L207.5 282L205.5 289L209.5 299.5L214.5 303L217.5 314.5L221 325.5L226.5 339L238.5 349.5L244 363L250.5 378L261.5 402L272.5 432.5L275 442.5L280.5 456.5L287.5 470L288.5 472.5H162.5L174.5 438L177 419.5L182 397L192 372L209.5 333.5L212.5 316.5L209.5 305.5L205.5 297L154.5 277V287L158.5 301L161.5 311.5V329L158.5 343.5L149.5 363L139.5 380.5L133.5 398L127.5 405.5L113.5 422.5L108 436.5L98.5 412.5L84.5 394.5L71 365.5L78.5 387.5L93 415L103.5 429L98.5 447L78.5 463.5L69 472.5H43L14.5 471.5L6.5 452.5" stroke="black"/>
</svg>
